<?xml version="1.0" encoding="UTF-8" standalone="no"?>
<!-- Created with Inkscape (http://www.inkscape.org/) -->

<svg
   width="32"
   height="32"
   viewBox="0 0 32 32"
   version="1.1"
   id="svg1"
   inkscape:version="1.4 (e7c3feb100, 2024-10-09)"
   sodipodi:docname="material.svg"
   xmlns:inkscape="http://www.inkscape.org/namespaces/inkscape"
   xmlns:sodipodi="http://sodipodi.sourceforge.net/DTD/sodipodi-0.dtd"
   xmlns="http://www.w3.org/2000/svg"
   xmlns:svg="http://www.w3.org/2000/svg">
  <sodipodi:namedview
     id="namedview1"
     pagecolor="#505050"
     bordercolor="#ffffff"
     borderopacity="1"
     inkscape:showpageshadow="0"
     inkscape:pageopacity="0"
     inkscape:pagecheckerboard="1"
     inkscape:deskcolor="#505050"
     inkscape:document-units="px"
     inkscape:zoom="17.25"
     inkscape:cx="8.6666667"
     inkscape:cy="8.8985507"
     inkscape:window-width="2516"
     inkscape:window-height="1366"
     inkscape:window-x="0"
     inkscape:window-y="0"
     inkscape:window-maximized="1"
     inkscape:current-layer="layer1" />
  <defs
     id="defs1">
    <inkscape:path-effect
       effect="fillet_chamfer"
       id="path-effect3"
       is_visible="true"
       lpeversion="1"
       nodesatellites_param="F,0,0,1,0,0,0,1 @ F,0,0,1,0,1.6497134,0,1 @ F,0,0,1,0,0,0,1 @ F,0,0,1,0,1.4967676,0,1 @ F,0,0,1,0,0,0,1 @ F,0,0,1,0,1.6122062,0,1 @ F,0,0,1,0,0,0,1 @ F,0,0,1,0,1.6904293,0,1"
       radius="0"
       unit="px"
       method="auto"
       mode="F"
       chamfer_steps="1"
       flexible="false"
       use_knot_distance="true"
       apply_no_radius="true"
       apply_with_radius="true"
       only_selected="false"
       hide_knots="false" />
  </defs>
  <g
     inkscape:label="Layer 1"
     inkscape:groupmode="layer"
     id="layer1">
    <ellipse
       style="fill:#ffffff;stroke-width:0.993666;stroke:#bfbfbf;stroke-opacity:1;fill-opacity:1"
       id="path1"
       cx="-16.113838"
       cy="-16.508547"
       rx="12.304026"
       ry="12.379204"
       transform="scale(-1)" />
    <path
       sodipodi:type="star"
       style="fill:#f0ff62;fill-opacity:1"
       id="path2"
       inkscape:flatsided="false"
       sodipodi:sides="4"
       sodipodi:cx="12.133542"
       sodipodi:cy="10.903792"
       sodipodi:r1="15.216701"
       sodipodi:r2="4.9302111"
       sodipodi:arg1="1.0951011"
       sodipodi:arg2="1.8634114"
       inkscape:rounded="0.04"
       inkscape:randomized="0"
       d="M 19.10213,24.431052 C 18.767153,24.610925 14.114872,19.222462 11.87615,16.787719 11.260782,16.118471 9.9766657,15.703008 9.0857012,15.884463 5.81712,16.550148 -1.2113201,18.212059 -1.3937175,17.872381 -1.5764151,17.532144 3.9854637,12.737958 6.3620879,10.542755 6.9679538,9.9831376 7.3460236,8.8144941 7.1832299,8.005854 6.5394244,4.807898 4.8199869,-2.4382298 5.1649537,-2.6234672 c 0.336249,-0.1805562 5.0226463,5.2495863 7.2513753,7.670936 0.601698,0.6537017 1.857523,1.0600027 2.728299,0.8831285 3.25232,-0.6606189 10.33309,-2.33635 10.516174,-1.9953933 0.179138,0.3336091 -5.164668,4.949329 -7.613354,7.19843 -0.686127,0.630204 -1.11153,1.945015 -0.925099,2.857894 0.670976,3.2855 2.318084,10.257865 1.979781,10.439524 z"
       inkscape:transform-center-x="-0.30391372"
       inkscape:transform-center-y="-0.28880689"
       transform="matrix(0.47156348,0.12543144,-0.12543144,0.47156348,19.6777,1.2003334)"
       inkscape:path-effect="#path-effect3" />
  </g>
</svg>
