<?xml version="1.0" encoding="UTF-8" standalone="no"?>
<!-- Created with Inkscape (http://www.inkscape.org/) -->

<svg
   width="32"
   height="32"
   viewBox="0 0 32 32"
   version="1.1"
   id="svg1"
   inkscape:version="1.4 (e7c3feb100, 2024-10-09)"
   sodipodi:docname="nanina_logo.svg"
   xmlns:inkscape="http://www.inkscape.org/namespaces/inkscape"
   xmlns:sodipodi="http://sodipodi.sourceforge.net/DTD/sodipodi-0.dtd"
   xmlns="http://www.w3.org/2000/svg"
   xmlns:svg="http://www.w3.org/2000/svg">
  <sodipodi:namedview
     id="namedview1"
     pagecolor="#ffffff"
     bordercolor="#000000"
     borderopacity="0.25"
     inkscape:showpageshadow="2"
     inkscape:pageopacity="0.0"
     inkscape:pagecheckerboard="0"
     inkscape:deskcolor="#d1d1d1"
     inkscape:document-units="px"
     inkscape:zoom="11.335806"
     inkscape:cx="6.0869075"
     inkscape:cy="16.98159"
     inkscape:window-width="2516"
     inkscape:window-height="1366"
     inkscape:window-x="0"
     inkscape:window-y="0"
     inkscape:window-maximized="1"
     inkscape:current-layer="layer1" />
  <defs
     id="defs1" />
  <g
     inkscape:label="Layer 1"
     inkscape:groupmode="layer"
     id="layer1">
    <rect
       style="fill:#ff0000;fill-opacity:0;stroke:#ffffff;stroke-width:6.93543"
       id="rect1"
       width="16.343081"
       height="22.206627"
       x="-69.489281"
       y="-84.584793" />
    <path
       style="fill:#f50000;fill-opacity:0;stroke:#ff1414;stroke-width:0.735;stroke-dasharray:none;stroke-opacity:1"
       d="m 6.0069786,-31.530767 c 2.1171273,0.01561 4.2342554,0.03121 6.3513834,0.04682 2.205341,0.01626 4.410683,0.03251 6.616023,0.04877 0.735115,0.0054 1.471417,-0.02586 2.205341,0.01626 0.297358,0.01706 1.008986,0.149075 1.321905,0.186181 0.1356,0.01608 0.404611,-0.05959 0.529282,0.0039 0.484476,0.246718 -0.70245,2.471398 -0.902944,2.816335 -0.506487,0.871378 -1.108235,1.640271 -1.694266,2.457627 -0.758917,1.058486 -0.294015,0.581354 -1.246696,1.578742 -1.658052,1.735864 0.318868,-0.378167 -1.598249,1.399714 -0.229197,0.21255 -0.415132,0.467438 -0.622697,0.701158 -0.295781,0.233069 -0.604049,0.451108 -0.88734,0.699207 -0.763666,0.668803 -1.452172,1.438136 -2.220946,2.100871 -0.414282,0.35714 -0.924443,0.593977 -1.330358,0.960596 -0.371618,0.335643 -0.622116,0.788158 -0.978803,1.139626 -0.16359,0.161194 -0.38421,0.261823 -0.532534,0.437166 -0.153109,0.181002 -0.22445,0.418613 -0.357406,0.614896 -0.105594,0.155889 -0.260037,0.276533 -0.356106,0.438467 -0.114262,0.192601 -0.156655,0.42193 -0.269192,0.615544 -0.3998182,0.687861 -0.9752507,1.306522 -1.3381602,2.01916 -0.1175615,0.230852 -0.2741905,0.543867 -0.3587071,0.791323 -0.040586,0.118831 -0.037009,0.333477 -0.091464,0.440417 -0.018878,0.03706 -0.088554,0.04598 -0.088861,0.08757 -3.172e-4,0.04159 0.050507,0.06999 0.087567,0.08887 0.3567756,0.181688 2.3784973,-0.21459 2.7365733,-0.244483 0.761889,-0.06361 1.529037,0.01127 2.293556,0.0169 1.970104,0.01452 3.940209,0.02904 5.910314,0.04357 4.351874,0.03208 8.703748,0.06416 13.055621,0.09624"
       id="path22" />
    <path
       style="fill:#f50000;fill-opacity:0;stroke:#ff1414;stroke-width:0.735;stroke-dasharray:none;stroke-opacity:1"
       d="m 17.209615,-19.490643 c 0.97035,0.0072 1.9407,0.0143 2.91105,0.02145 0.110611,8.52e-4 2.758373,-0.04461 2.822837,0.02081 0.02064,0.02095 -4.52e-4,0.05881 -6.28e-4,0.08821 -0.002,0.275829 0.04912,0.614306 -0.0065,0.882137 -0.03768,0.181409 -0.100113,0.283522 -0.17968,0.439768 -0.147813,0.290258 -0.282971,0.60908 -0.44757,0.878885 -0.161551,0.264809 -0.434835,0.454484 -0.622697,0.701157 -0.139626,0.183338 -0.217782,0.431559 -0.357407,0.614895 -0.145245,0.190715 -0.408621,0.321204 -0.533183,0.525381 -0.04843,0.07939 -0.04173,0.184609 -0.09017,0.26399 -0.08662,0.142003 -0.254673,0.21792 -0.355455,0.350254 -0.163888,0.215192 -0.294175,0.477918 -0.446272,0.702459 -0.114344,0.168807 -0.329974,0.269009 -0.444319,0.437816 -0.194676,0.04299 -0.04796,0.181129 -0.09017,0.263991 -0.03909,0.07677 -0.566472,0.820899 -0.623998,0.877585"
       id="path23" />
    <path
       style="fill:#f50000;fill-opacity:0;stroke:#ff1414;stroke-width:0.735;stroke-dasharray:none;stroke-opacity:1"
       d="m -16.976727,-34.370108 c 0.185411,1.931876 0.370822,3.863752 0.556233,5.795628 0.0899,0.936667 0.179793,1.873335 0.269689,2.810002 0.058,0.604378 0.16936,1.236341 0.176984,1.844063 0.0022,0.178852 -0.03654,0.356439 -0.03725,0.535304 -0.0033,0.83813 0.164166,1.710518 0.244405,2.546564 0.02375,0.247505 0.269884,1.367007 0.05546,1.501241 -0.164385,0.102905 -2.237793,-1.134105 -2.426398,-1.273691 -0.747135,-0.552953 -1.511299,-1.127966 -2.125715,-1.834278 -1.044687,-1.200934 0.26661,0.03891 -0.908303,-1.153525 -0.248517,-0.252224 -0.542033,-0.459202 -0.77835,-0.722891 -0.228865,-0.255375 -0.382287,-0.572185 -0.611152,-0.827559 -0.07844,-0.08752 -1.623273,-1.494198 -1.652941,-1.525166 -0.220038,-0.229675 -0.395315,-0.498608 -0.602725,-0.739747 -0.980737,-1.14022 -0.194583,-0.182511 -1.180168,-1.216054 -0.452403,-0.474418 -0.836367,-1.000276 -1.293263,-1.471065 -0.341668,-0.352059 -0.716538,-0.623524 -1.067071,-0.961046 -0.152747,-0.147077 -0.23824,-0.358236 -0.401817,-0.493164 -0.113421,-0.09356 -0.263114,-0.136171 -0.376534,-0.229726 -0.383207,-0.316092 -0.602783,-0.778552 -0.908302,-1.153526 -0.165992,-0.20373 -0.408252,-0.369278 -0.585869,-0.564121 -0.168219,-0.184533 -0.32027,-0.389357 -0.498058,-0.57255 -0.144808,-0.149212 -0.336393,-0.247711 -0.481201,-0.396923 -0.250755,-0.25838 -0.389552,-0.563909 -0.698966,-0.819132 -0.25119,-0.207196 -0.479364,-0.394668 -0.68211,-0.643505 -0.04153,-0.05098 -0.110954,-0.232649 -0.104672,-0.167197 0.33992,3.541772 0.67984,7.083546 1.01976,10.625318 0.160128,1.668439 0.320256,3.336877 0.480383,5.005316 0.207885,2.166043 0.415771,4.332086 0.623656,6.498129"
       id="path26" />
    <path
       style="fill:#f50000;fill-opacity:0;stroke:#ff1414;stroke-width:0.735;stroke-dasharray:none;stroke-opacity:1"
       d="m -16.172552,-26.914469 c -0.117084,0.01124 -0.362488,-0.08337 -0.351251,0.03371 0.01124,0.117083 0.468264,-0.02177 0.351251,-0.03371 -0.264901,-0.02704 -0.533407,0.01043 -0.798742,-0.01197 -0.175303,-0.01479 -0.758762,-0.338921 -0.928692,-0.442597 -0.240904,-0.146979 -0.416304,-0.334352 -0.665255,-0.467882 -0.28748,-0.154196 -0.482442,-0.480881 -0.769922,-0.635078 -0.05794,-0.03108 -0.133329,-0.02911 -0.184053,-0.07096 -0.256541,-0.211609 -0.363597,-0.623359 -0.611154,-0.827559 -0.05072,-0.04184 -0.133329,-0.02912 -0.184053,-0.07096 -0.149689,-0.123472 -0.269287,-0.347781 -0.401817,-0.493164 -0.464558,-0.509612 -1.166821,-0.67763 -1.61923,-1.173916 -0.132529,-0.145382 -0.252128,-0.369692 -0.401816,-0.493164 -0.05072,-0.04184 -0.13333,-0.02911 -0.184054,-0.07096 -0.14815,-0.122203 -0.253667,-0.370961 -0.401816,-0.493164 -0.05072,-0.04184 -0.13333,-0.02911 -0.184053,-0.07096 -0.23375,-0.19281 0.01373,-0.131452 -0.20091,-0.246583 -0.1942,-0.104163 -0.422089,-0.208169 -0.569014,-0.388496 -0.139944,-0.171758 -0.430802,-0.517073 -0.594297,-0.651933 -0.02268,-0.01871 0.0056,0.05854 0.0084,0.08782 0.01967,0.204895 0.03933,0.409792 0.059,0.614687 0.07023,0.731772 0.140463,1.463543 0.210694,2.195314 0.228083,2.376495 0.366354,4.740622 0.594833,7.121245 0.01712,0.178325 0.209728,1.497753 0.06388,1.589054 -0.231896,0.14517 -1.174113,-0.15987 -1.359328,-0.312646 -0.05072,-0.04184 -0.05394,-0.125358 -0.104672,-0.167197 -0.101448,-0.08368 -0.255844,-0.07342 -0.368105,-0.141914 -0.471164,-0.287461 -1.032207,-0.503773 -1.418322,-0.927335 -0.423971,-0.465087 -1.067789,-1.51671 -1.590412,-1.797031 -0.348199,-0.186765 -0.670274,-0.331753 -1.024932,-0.521982 -0.156884,-0.08415 -0.778614,-0.574611 -0.866163,-0.714463 -0.0156,-0.02492 -0.0056,-0.05854 -0.0084,-0.08782 -0.03489,-0.05573 -0.06313,-0.116222 -0.104672,-0.167197 -0.128786,-0.158065 -0.352414,-0.238859 -0.481201,-0.396924 -0.08307,-0.101948 -0.126271,-0.232446 -0.209336,-0.334394 -0.178215,-0.218729 -0.430718,-0.316281 -0.58587,-0.564121"
       id="path28" />
    <path
       style="fill:#800080;fill-opacity:0;stroke:#800080;stroke-width:3.662;stroke-linecap:butt;stroke-linejoin:round;stroke-dasharray:none;stroke-opacity:1"
       d="M 1.8455034,30.185696 9.6320758,3.3355532 22.045331,27.725417"
       id="path32"
       sodipodi:nodetypes="ccc" />
    <path
       style="fill:#800080;fill-opacity:0;stroke:#800080;stroke-width:3.662;stroke-linecap:butt;stroke-linejoin:round;stroke-dasharray:none;stroke-opacity:1"
       d="M 30.255642,1.9457201 22.588467,28.838275 10.175211,4.4484106"
       id="path32-7"
       sodipodi:nodetypes="ccc" />
    <path
       style="fill:#800080;fill-opacity:0;stroke:#800080;stroke-width:3.662;stroke-linecap:butt;stroke-linejoin:round;stroke-dasharray:none;stroke-opacity:1"
       d="M 14.303734,20.147306 12.306465,26.700331 11.082652,24.458034 5.9812517,15.111135"
       id="path32-7-3"
       sodipodi:nodetypes="cccc" />
    <path
       style="fill:#800080;fill-opacity:0;stroke:#800080;stroke-width:3.662;stroke-linecap:butt;stroke-linejoin:round;stroke-dasharray:none;stroke-opacity:1"
       d="M 17.766734,11.600539 19.811546,4.8915252 26.110865,16.433277"
       id="path32-7-3-2"
       sodipodi:nodetypes="ccc" />
  </g>
</svg>
