<?xml version="1.0" encoding="UTF-8" standalone="no"?>
<!-- Created with Inkscape (http://www.inkscape.org/) -->

<svg
   width="32"
   height="32"
   viewBox="0 0 32 32"
   version="1.1"
   id="svg1"
   inkscape:version="1.4 (e7c3feb100, 2024-10-09)"
   sodipodi:docname="magic_socks.svg"
   xmlns:inkscape="http://www.inkscape.org/namespaces/inkscape"
   xmlns:sodipodi="http://sodipodi.sourceforge.net/DTD/sodipodi-0.dtd"
   xmlns="http://www.w3.org/2000/svg"
   xmlns:svg="http://www.w3.org/2000/svg">
  <sodipodi:namedview
     id="namedview1"
     pagecolor="#ffffff"
     bordercolor="#000000"
     borderopacity="0.25"
     inkscape:showpageshadow="2"
     inkscape:pageopacity="0.0"
     inkscape:pagecheckerboard="0"
     inkscape:deskcolor="#d1d1d1"
     inkscape:document-units="px"
     inkscape:zoom="8"
     inkscape:cx="-3.1875"
     inkscape:cy="-3.4375"
     inkscape:window-width="2516"
     inkscape:window-height="1366"
     inkscape:window-x="0"
     inkscape:window-y="0"
     inkscape:window-maximized="1"
     inkscape:current-layer="path38" />
  <defs
     id="defs1" />
  <g
     inkscape:label="Layer 1"
     inkscape:groupmode="layer"
     id="layer1">
    <g
       id="path38">
      <path
         style="fill:#c30047;fill-opacity:0;stroke-linejoin:round"
         d="M 9.9781863,2.8956649 9.9340783,18.377581 c 0,0 5.5915777,5.81458 9.2084357,7.402469"
         id="path39" />
      <path
         id="path40"
         style="fill:#aa0039;fill-opacity:1;stroke:none;stroke-width:1.05964;stroke-linejoin:round;stroke-opacity:1"
         d="M 12.302251,13.675453 H 5.4780318 l -0.087891,6.251953 c -0.0033,0.962619 0.3661713,1.889928 1.0332031,2.583984 0,0 3.2402866,3.124244 5.3144531,4.976563 2.074166,1.85232 6.76871,3.448347 8.574219,1.291015 l 0.53125,-0.865234 C 22.288836,24.643047 13.665087,21.837079 12.80811,18.361 12.568598,17.123519 12.409628,15.449123 12.302251,13.675453 Z"
         sodipodi:nodetypes="ccccscccc" />
      <path
         id="path49"
         style="fill:#d80048;fill-opacity:1;stroke:none;stroke-width:1.05964;stroke-linejoin:round;stroke-opacity:1"
         d="M 12.206547,11.765297 H 5.5053756 l -0.027344,1.910156 h 6.8242192 c -0.03812,-0.629709 -0.06995,-1.269115 -0.0957,-1.910156 z" />
      <path
         id="path48"
         style="fill:#aa0039;fill-opacity:1;stroke:none;stroke-width:1.05964;stroke-linejoin:round;stroke-opacity:1"
         d="M 12.161626,10.464515 H 5.5229537 l -0.017578,1.300782 h 6.7011714 c -0.01754,-0.436669 -0.03224,-0.870363 -0.04492,-1.300782 z" />
      <path
         id="path51"
         style="fill:#d80048;fill-opacity:1;stroke:none;stroke-width:1.05964;stroke-linejoin:round;stroke-opacity:1"
         d="M 12.118657,8.5543594 H 5.5502974 l -0.027344,1.9101556 h 6.6386723 c -0.01934,-0.6564353 -0.03286,-1.2956108 -0.04297,-1.9101556 z" />
      <path
         id="path50"
         style="fill:#aa0039;fill-opacity:1;stroke:none;stroke-width:1.05964;stroke-linejoin:round;stroke-opacity:1"
         d="M 12.103032,7.251625 H 5.5678756 l -0.017578,1.3027344 h 6.5683596 c -0.0075,-0.4555591 -0.01196,-0.8857081 -0.01563,-1.3027344 z" />
      <path
         id="path53"
         style="fill:#d80048;fill-opacity:1;stroke:none;stroke-width:1.05964;stroke-linejoin:round;stroke-opacity:1"
         d="M 12.097172,5.3434219 H 5.5952193 L 5.5678756,7.251625 h 6.5351564 c -0.0064,-0.727499 -0.0069,-1.3546588 -0.0059,-1.9082031 z" />
      <path
         id="path52"
         style="fill:#aa0039;fill-opacity:1;stroke:none;stroke-width:1.05964;stroke-linejoin:round;stroke-opacity:1"
         d="m 5.6206099,3.5231094 -0.025391,1.8203125 h 6.5019527 c 0.0021,-1.090518 0.01172,-1.8144531 0.01172,-1.8144531 z" />
      <path
         style="fill:#c30047;fill-opacity:0;stroke-linejoin:round"
         d="M 21.471816,-0.22093731 21.427706,15.260979 c 0,0 5.591578,5.814579 9.208436,7.402468"
         id="path39-3" />
      <path
         id="path40-2"
         style="fill:#aa0039;fill-opacity:1;stroke:none;stroke-width:0.938156;stroke-linejoin:round;stroke-opacity:1"
         d="m 22.302274,10.902071 h -6.041848 l -0.07781,5.535189 c -0.0029,0.852258 0.32419,1.673255 0.91475,2.28774 0,0 2.8688,2.766061 4.70517,4.406018 1.836371,1.639959 5.992703,3.053007 7.591217,1.143005 l 0.470344,-0.766038 c 1.279841,-2.895715 -6.335576,-5.45437 -7.113955,-8.457549 -0.212053,-1.095608 -0.352798,-2.578041 -0.447865,-4.148365 z"
         sodipodi:nodetypes="ccccscccsc" />
      <path
         id="path49-0"
         style="fill:#d80048;fill-opacity:1;stroke:none;stroke-width:0.938156;stroke-linejoin:round;stroke-opacity:1"
         d="m 22.217543,9.2109074 h -5.932908 l -0.02421,1.6911636 h 6.041847 c -0.03375,-0.557515 -0.06193,-1.1236156 -0.08473,-1.6911636 z" />
      <path
         id="path48-6"
         style="fill:#aa0039;fill-opacity:1;stroke:none;stroke-width:0.938156;stroke-linejoin:round;stroke-opacity:1"
         d="m 22.177771,8.0592552 h -5.877573 l -0.01556,1.1516522 h 5.932907 c -0.01553,-0.3866065 -0.02854,-0.7705791 -0.03977,-1.1516522 z" />
      <path
         id="path51-1"
         style="fill:#d80048;fill-opacity:1;stroke:none;stroke-width:0.938156;stroke-linejoin:round;stroke-opacity:1"
         d="m 22.139728,6.3680915 h -5.815321 l -0.0242,1.6911637 H 22.17778 C 22.16065,7.4780774 22.14868,6.912181 22.13973,6.3680915 Z" />
      <path
         id="path50-5"
         style="fill:#aa0039;fill-opacity:1;stroke:none;stroke-width:0.938156;stroke-linejoin:round;stroke-opacity:1"
         d="M 22.125895,5.2147108 H 16.33997 l -0.01556,1.1533807 h 5.815321 c -0.0066,-0.4033309 -0.01059,-0.7841649 -0.01384,-1.1533807 z" />
      <path
         id="path53-5"
         style="fill:#d80048;fill-opacity:1;stroke:none;stroke-width:0.938156;stroke-linejoin:round;stroke-opacity:1"
         d="m 22.120707,3.5252761 h -5.756529 l -0.0242,1.6894347 h 5.785924 c -0.0057,-0.644094 -0.0061,-1.1993522 -0.0052,-1.6894347 z" />
      <path
         id="path52-4"
         style="fill:#aa0039;fill-opacity:1;stroke:none;stroke-width:0.938156;stroke-linejoin:round;stroke-opacity:1"
         d="m 16.386658,1.9136556 -0.02248,1.6116205 h 5.756528 c 0.0019,-0.9654942 0.01038,-1.6064328 0.01038,-1.6064328 z" />
    </g>
  </g>
</svg>
