<?xml version="1.0" encoding="UTF-8" standalone="no"?>
<!-- Created with Inkscape (http://www.inkscape.org/) -->

<svg
   width="32"
   height="32"
   viewBox="0 0 32 32"
   version="1.1"
   id="svg1"
   inkscape:version="1.4.2 (ebf0e940d0, 2025-05-08)"
   sodipodi:docname="unlock.svg"
   xmlns:inkscape="http://www.inkscape.org/namespaces/inkscape"
   xmlns:sodipodi="http://sodipodi.sourceforge.net/DTD/sodipodi-0.dtd"
   xmlns="http://www.w3.org/2000/svg"
   xmlns:svg="http://www.w3.org/2000/svg">
  <sodipodi:namedview
     id="namedview1"
     pagecolor="#ffffff"
     bordercolor="#000000"
     borderopacity="0.25"
     inkscape:showpageshadow="2"
     inkscape:pageopacity="0.0"
     inkscape:pagecheckerboard="0"
     inkscape:deskcolor="#d1d1d1"
     inkscape:document-units="px"
     inkscape:zoom="11.313709"
     inkscape:cx="16.749592"
     inkscape:cy="28.0633"
     inkscape:window-width="1876"
     inkscape:window-height="1006"
     inkscape:window-x="0"
     inkscape:window-y="0"
     inkscape:window-maximized="1"
     inkscape:current-layer="svg1" />
  <defs
     id="defs1" />
  <g
     inkscape:label="Layer 1"
     inkscape:groupmode="layer"
     id="layer1">
    <path
       id="rect1"
       style="fill:#008000;stroke:#800066;stroke-width:0;stroke-dasharray:none"
       d="M 7.9257812,14.160156 V 31.476562 H 24.78125 V 14.160156 Z m 7.7382808,4.324219 h 2.802735 l -0.578125,1.107422 h -0.841797 v 1.126953 h 1.419922 l -0.578125,1.10742 h -0.841797 v 1.125 c 0.875112,0.297044 1.463553,1.118817 1.462891,2.042969 2.36e-4,1.190962 -0.965288,2.156486 -2.15625,2.15625 -1.190962,2.36e-4 -2.156486,-0.965288 -2.15625,-2.15625 -9.6e-5,-0.925182 0.590141,-1.74727 1.466796,-2.042969 v -1.125 -1.107422 -1.126953 z"
       sodipodi:nodetypes="cccccccccccccccccccccc" />
  </g>
  <path
     id="path4"
     style="fill:#008000;stroke:#800066;stroke-width:0;stroke-dasharray:none"
     d="M 16.353296,0.69241239 C 12.5468,0.69294589 9.4611578,3.7785865 9.4606235,7.5850825 V 18.566427 H 12.851507 V 7.5850825 c 0,-1.9338423 1.567946,-3.5014449 3.501789,-3.5017888 1.934643,-7.895e-4 3.503497,1.5671452 3.503841,3.5017888 v 2.9637315 h 3.390882 V 7.5850825 c 0,-3.8072974 -3.087426,-6.89327021 -6.894723,-6.89267011 z"
     sodipodi:nodetypes="csccscsccsc" />
  <path
     id="path6"
     style="fill:#ffff00;stroke:#800066;stroke-width:0"
     inkscape:transform-center-x="-0.11048543"
     inkscape:transform-center-y="-0.13633622"
     d="m 24.660349,9.5680383 1.135195,1.2007497 -2.601847,1.200326 z"
     sodipodi:nodetypes="cccc" />
  <path
     id="path7"
     style="fill:#ffff00;stroke:#800066;stroke-width:0"
     inkscape:transform-center-x="0.29047647"
     inkscape:transform-center-y="0.10954278"
     d="M 27.830476,12.298092 27.640743,13.63296 27.45101,14.967828 23.472529,12.950779 Z"
     sodipodi:nodetypes="ccccc" />
</svg>
